<svg viewBox="0 0 70 70" xmlns="http://www.w3.org/2000/svg"><g fill="none" fill-rule="nonzero"><path d="M25.23 6h25.54c6.687 0 9.112.696 11.556 2.003a13.63 13.63 0 0 1 5.67 5.67C69.305 16.119 70 18.544 70 25.23v25.542c0 6.686-.696 9.11-2.003 11.555a13.63 13.63 0 0 1-5.67 5.67C59.881 69.305 57.456 70 50.77 70H25.229c-6.686 0-9.11-.696-11.555-2.003a13.63 13.63 0 0 1-5.67-5.67C6.695 59.881 6 57.456 6 50.77V25.229c0-6.686.696-9.11 2.003-11.555a13.63 13.63 0 0 1 5.67-5.67C16.119 6.695 18.544 6 25.23 6z" fill="#0A60F5" opacity=".499"/><path d="M19.23 0h25.54c6.687 0 9.112.696 11.556 2.003a13.63 13.63 0 0 1 5.67 5.67C63.305 10.119 64 12.544 64 19.23v25.542c0 6.686-.696 9.11-2.003 11.555a13.63 13.63 0 0 1-5.67 5.67C53.881 63.305 51.456 64 44.77 64H19.229c-6.686 0-9.11-.696-11.555-2.003a13.63 13.63 0 0 1-5.67-5.67C.695 53.881 0 51.456 0 44.77V19.229c0-6.686.696-9.11 2.003-11.555a13.63 13.63 0 0 1 5.67-5.67C10.119.695 12.544 0 19.23 0z" fill="#0A60F5"/><g transform="translate(13 21)" fill="#FFF"><rect opacity=".5" y="9" width="8" height="4" rx="2"/><rect opacity=".5" y="18" width="4" height="4" rx="2"/><path d="M26.382 15.764l4.106-8.211a1 1 0 0 1 1.788 0l6.382 12.764a1 1 0 0 1-.894 1.447H9a1 1 0 0 1-.894-1.447l9.382-18.764a1 1 0 0 1 1.788 0l7.106 14.211z"/><rect opacity=".5" width="12" height="4" rx="2"/></g></g></svg>
